<?xml version="1.0" encoding="UTF-8" standalone="no"?>
<!-- Created with Inkscape (http://www.inkscape.org/) -->

<svg
   xmlns:dc="http://purl.org/dc/elements/1.1/"
   xmlns:cc="http://creativecommons.org/ns#"
   xmlns:rdf="http://www.w3.org/1999/02/22-rdf-syntax-ns#"
   xmlns:svg="http://www.w3.org/2000/svg"
   xmlns="http://www.w3.org/2000/svg"
   xmlns:sodipodi="http://sodipodi.sourceforge.net/DTD/sodipodi-0.dtd"
   xmlns:inkscape="http://www.inkscape.org/namespaces/inkscape"
   width="1920"
   height="1080"
   viewBox="0 0 508.00001 285.74999"
   version="1.1"
   id="svg8"
   sodipodi:docname="driving.svg"
   inkscape:version="0.92.4 (33fec40, 2019-01-16)">
  <defs
     id="defs2" />
  <sodipodi:namedview
     id="base"
     pagecolor="#ffffff"
     bordercolor="#666666"
     borderopacity="1.0"
     inkscape:pageopacity="0.0"
     inkscape:pageshadow="2"
     inkscape:zoom="0.35"
     inkscape:cx="1291.236"
     inkscape:cy="560"
     inkscape:document-units="mm"
     inkscape:current-layer="layer1"
     showgrid="false"
     units="px"
     inkscape:window-width="1920"
     inkscape:window-height="1031"
     inkscape:window-x="0"
     inkscape:window-y="25"
     inkscape:window-maximized="1" />
  <metadata
     id="metadata5">
    <rdf:RDF>
      <cc:Work
         rdf:about="">
        <dc:format>image/svg+xml</dc:format>
        <dc:type
           rdf:resource="http://purl.org/dc/dcmitype/StillImage" />
        <dc:title></dc:title>
      </cc:Work>
    </rdf:RDF>
  </metadata>
  <g
     inkscape:label="Layer 1"
     inkscape:groupmode="layer"
     id="layer1"
     transform="translate(0,-11.250015)">
    <path
       style="fill:#c3ffff;stroke:#000000;stroke-width:0.26458332px;stroke-linecap:butt;stroke-linejoin:miter;stroke-opacity:1;fill-opacity:1"
       d="m -40.823573,-16.343039 c -1.511905,104.321415 -1.511905,105.077385 -1.511905,105.077385 l 599.470238,10.58332 3.77976,-118.684515 z"
       id="path60"
       inkscape:connector-curvature="0" />
    <path
       style="fill:#acdaff;fill-opacity:1;stroke:#000000;stroke-width:0.26458332px;stroke-linecap:butt;stroke-linejoin:miter;stroke-opacity:1"
       d="M -43.847384,67.567666 C -45.359289,171.8891 -45.359289,172.64506 -45.359289,172.64506 L 554.11094,183.22839 557.8907,64.543856 C 363.66412,86.198342 166.69259,39.967426 -43.847384,67.567666 Z"
       id="path60-3"
       inkscape:connector-curvature="0"
       sodipodi:nodetypes="ccccc" />
    <path
       style="fill:#00ffcd;fill-opacity:1;stroke:#000000;stroke-width:0.26458332px;stroke-linecap:butt;stroke-linejoin:miter;stroke-opacity:1"
       d="m -37.799769,137.11529 c -1.511905,104.32142 -1.511905,105.07739 -1.511905,105.07739 L 560.15857,252.776 563.93833,134.09148 C 353.78468,103.98299 156.3613,115.24787 -37.799769,137.11529 Z"
       id="path60-6"
       inkscape:connector-curvature="0"
       sodipodi:nodetypes="ccccc" />
    <path
       style="fill:#00bacd;fill-opacity:1;stroke:#000000;stroke-width:0.26458332px;stroke-linecap:butt;stroke-linejoin:miter;stroke-opacity:1"
       d="m -39.311674,242.19268 c -1.5119,104.32142 -1.5119,105.07739 -1.5119,105.07739 l 599.470234,10.58332 3.77976,-118.68452 c -79.3432,-29.39211 -185.47359,-20.37855 -281.18153,-25.67399 -126.88135,-7.02023 -211.667922,-9.3331 -320.556564,28.6978 z"
       id="path60-6-7"
       inkscape:connector-curvature="0"
       sodipodi:nodetypes="ccccsc" />
    <circle
       style="fill:#685370;fill-opacity:1;stroke-width:0.16403222"
       id="path4636"
       cx="130.02383"
       cy="251.64287"
       r="33.261902" />
    <circle
       style="fill:#685370;fill-opacity:1;stroke-width:0.16403222"
       id="path4636-5"
       cx="318.25595"
       cy="252.39882"
       r="33.261902" />
    <path
       style="fill:#d3ec6f;fill-opacity:1;stroke:#000000;stroke-width:0.26458332px;stroke-linecap:butt;stroke-linejoin:miter;stroke-opacity:1"
       d="m 49.136905,247.86311 55.938355,0.34459 c 0.77761,-33.61492 46.31732,-29.43587 46.86727,0.28871 l 144.38142,0.88941 c -0.79496,-30.05292 42.22901,-28.28901 40.8292,0.25151 l 80.13257,0.49363 -12.09524,-58.20833 -63.5,-6.80357 -12.85121,-50.64881 H 178.40476 l -11.33929,48.38095 -89.958328,10.58334 z"
       id="path4653"
       inkscape:connector-curvature="0"
       sodipodi:nodetypes="ccccccccccccc" />
  </g>
</svg>
